<mxfile host="app.diagrams.net" modified="2021-09-16T16:41:32.700Z" agent="5.0 (Windows NT 10.0; Win64; x64) AppleWebKit/537.36 (KHTML, like Gecko) Chrome/86.0.4240.183 Safari/537.36" etag="7X-_vipr8HK6e3ahpr65" version="15.2.7" type="github">
  <diagram id="yScCHkbCsWapM0Lak933" name="Page-1">
    <mxGraphModel dx="2249" dy="794" grid="1" gridSize="10" guides="1" tooltips="1" connect="1" arrows="1" fold="1" page="1" pageScale="1" pageWidth="827" pageHeight="1169" math="0" shadow="0">
      <root>
        <mxCell id="0" />
        <mxCell id="1" parent="0" />
        <mxCell id="JW5BQh1NypTSuLVF8O1o-1" value="" style="ellipse;html=1;shape=startState;fillColor=#000000;strokeColor=#ff0000;" vertex="1" parent="1">
          <mxGeometry x="80" y="360" width="30" height="30" as="geometry" />
        </mxCell>
        <mxCell id="JW5BQh1NypTSuLVF8O1o-2" value="" style="edgeStyle=orthogonalEdgeStyle;html=1;verticalAlign=bottom;endArrow=open;endSize=8;strokeColor=#ff0000;startArrow=none;entryX=0.5;entryY=1;entryDx=0;entryDy=0;" edge="1" source="JW5BQh1NypTSuLVF8O1o-67" parent="1" target="JW5BQh1NypTSuLVF8O1o-29">
          <mxGeometry relative="1" as="geometry">
            <mxPoint x="130" y="1120" as="targetPoint" />
            <Array as="points" />
          </mxGeometry>
        </mxCell>
        <mxCell id="JW5BQh1NypTSuLVF8O1o-4" value="Кондиционер внешний" style="html=1;" vertex="1" parent="1">
          <mxGeometry x="360" y="230" width="150" height="50" as="geometry" />
        </mxCell>
        <mxCell id="JW5BQh1NypTSuLVF8O1o-5" value="Кондиционер внутренний настеный" style="html=1;" vertex="1" parent="1">
          <mxGeometry x="525" y="230" width="230" height="50" as="geometry" />
        </mxCell>
        <mxCell id="JW5BQh1NypTSuLVF8O1o-6" value="Помещение" style="html=1;" vertex="1" parent="1">
          <mxGeometry x="180" y="230" width="150" height="50" as="geometry" />
        </mxCell>
        <mxCell id="JW5BQh1NypTSuLVF8O1o-7" value="Пульт управление от кондиционера (внутренего)" style="html=1;" vertex="1" parent="1">
          <mxGeometry x="780" y="230" width="300" height="50" as="geometry" />
        </mxCell>
        <mxCell id="JW5BQh1NypTSuLVF8O1o-8" value="Пользователь" style="html=1;" vertex="1" parent="1">
          <mxGeometry x="10" y="230" width="150" height="50" as="geometry" />
        </mxCell>
        <mxCell id="JW5BQh1NypTSuLVF8O1o-10" value="Найти пульт управления от кондиционера" style="rounded=1;whiteSpace=wrap;html=1;" vertex="1" parent="1">
          <mxGeometry x="680" y="345" width="210" height="60" as="geometry" />
        </mxCell>
        <mxCell id="JW5BQh1NypTSuLVF8O1o-11" value="" style="edgeStyle=orthogonalEdgeStyle;html=1;verticalAlign=bottom;endArrow=none;endSize=8;strokeColor=#ff0000;startArrow=none;" edge="1" parent="1" source="JW5BQh1NypTSuLVF8O1o-12" target="JW5BQh1NypTSuLVF8O1o-10">
          <mxGeometry relative="1" as="geometry">
            <mxPoint x="840" y="375" as="targetPoint" />
            <mxPoint x="110" y="375" as="sourcePoint" />
          </mxGeometry>
        </mxCell>
        <mxCell id="JW5BQh1NypTSuLVF8O1o-14" value="&lt;b&gt;&lt;font style=&quot;font-size: 17px&quot;&gt;Диаграмма деятельности Сплит-системы&lt;/font&gt;&lt;/b&gt;" style="text;html=1;strokeColor=none;fillColor=none;align=center;verticalAlign=middle;whiteSpace=wrap;rounded=0;" vertex="1" parent="1">
          <mxGeometry x="550" y="90" width="170" height="80" as="geometry" />
        </mxCell>
        <mxCell id="JW5BQh1NypTSuLVF8O1o-30" style="edgeStyle=orthogonalEdgeStyle;rounded=0;orthogonalLoop=1;jettySize=auto;html=1;entryX=0.5;entryY=0;entryDx=0;entryDy=0;" edge="1" parent="1" source="JW5BQh1NypTSuLVF8O1o-12" target="JW5BQh1NypTSuLVF8O1o-29">
          <mxGeometry relative="1" as="geometry">
            <Array as="points">
              <mxPoint x="518" y="480" />
              <mxPoint x="95" y="480" />
            </Array>
          </mxGeometry>
        </mxCell>
        <mxCell id="JW5BQh1NypTSuLVF8O1o-12" value="Есть кондиционер в помещении?" style="rhombus;whiteSpace=wrap;html=1;" vertex="1" parent="1">
          <mxGeometry x="450" y="310" width="136" height="130" as="geometry" />
        </mxCell>
        <mxCell id="JW5BQh1NypTSuLVF8O1o-16" value="" style="edgeStyle=orthogonalEdgeStyle;html=1;verticalAlign=bottom;endArrow=none;endSize=8;strokeColor=#ff0000;startArrow=none;" edge="1" parent="1" source="JW5BQh1NypTSuLVF8O1o-9" target="JW5BQh1NypTSuLVF8O1o-12">
          <mxGeometry relative="1" as="geometry">
            <mxPoint x="780" y="375" as="targetPoint" />
            <mxPoint x="110" y="375" as="sourcePoint" />
          </mxGeometry>
        </mxCell>
        <mxCell id="JW5BQh1NypTSuLVF8O1o-17" value="да" style="text;html=1;strokeColor=none;fillColor=none;align=center;verticalAlign=middle;whiteSpace=wrap;rounded=0;" vertex="1" parent="1">
          <mxGeometry x="615" y="350" width="40" height="20" as="geometry" />
        </mxCell>
        <mxCell id="JW5BQh1NypTSuLVF8O1o-26" style="edgeStyle=orthogonalEdgeStyle;rounded=0;orthogonalLoop=1;jettySize=auto;html=1;entryX=0.5;entryY=1;entryDx=0;entryDy=0;" edge="1" parent="1" source="JW5BQh1NypTSuLVF8O1o-20" target="JW5BQh1NypTSuLVF8O1o-10">
          <mxGeometry relative="1" as="geometry">
            <mxPoint x="998" y="500" as="targetPoint" />
            <Array as="points">
              <mxPoint x="998" y="460" />
              <mxPoint x="785" y="460" />
            </Array>
          </mxGeometry>
        </mxCell>
        <mxCell id="JW5BQh1NypTSuLVF8O1o-20" value="Пульт найден?" style="rhombus;whiteSpace=wrap;html=1;" vertex="1" parent="1">
          <mxGeometry x="930" y="310" width="136" height="130" as="geometry" />
        </mxCell>
        <mxCell id="JW5BQh1NypTSuLVF8O1o-21" value="" style="edgeStyle=orthogonalEdgeStyle;html=1;verticalAlign=bottom;endArrow=none;endSize=8;strokeColor=#ff0000;startArrow=none;" edge="1" parent="1" source="JW5BQh1NypTSuLVF8O1o-10" target="JW5BQh1NypTSuLVF8O1o-20">
          <mxGeometry relative="1" as="geometry">
            <mxPoint x="1220" y="375" as="targetPoint" />
            <mxPoint x="890" y="375" as="sourcePoint" />
          </mxGeometry>
        </mxCell>
        <mxCell id="JW5BQh1NypTSuLVF8O1o-22" value="да" style="text;html=1;strokeColor=none;fillColor=none;align=center;verticalAlign=middle;whiteSpace=wrap;rounded=0;" vertex="1" parent="1">
          <mxGeometry x="1090" y="350" width="40" height="20" as="geometry" />
        </mxCell>
        <mxCell id="JW5BQh1NypTSuLVF8O1o-23" value="Вкл. кондиционер используя пульт" style="rounded=1;whiteSpace=wrap;html=1;" vertex="1" parent="1">
          <mxGeometry x="1060" y="490" width="210" height="60" as="geometry" />
        </mxCell>
        <mxCell id="JW5BQh1NypTSuLVF8O1o-24" value="" style="edgeStyle=orthogonalEdgeStyle;html=1;verticalAlign=bottom;endArrow=none;endSize=8;strokeColor=#ff0000;startArrow=none;" edge="1" parent="1" source="JW5BQh1NypTSuLVF8O1o-20" target="JW5BQh1NypTSuLVF8O1o-23">
          <mxGeometry relative="1" as="geometry">
            <mxPoint x="1160" y="670" as="targetPoint" />
            <mxPoint x="1066" y="375" as="sourcePoint" />
            <Array as="points">
              <mxPoint x="1165" y="375" />
            </Array>
          </mxGeometry>
        </mxCell>
        <mxCell id="JW5BQh1NypTSuLVF8O1o-25" value="Датчик определяющий температуру помещения" style="html=1;" vertex="1" parent="1">
          <mxGeometry x="1110" y="230" width="290" height="50" as="geometry" />
        </mxCell>
        <mxCell id="JW5BQh1NypTSuLVF8O1o-27" value="Искать" style="text;html=1;strokeColor=none;fillColor=none;align=center;verticalAlign=middle;whiteSpace=wrap;rounded=0;" vertex="1" parent="1">
          <mxGeometry x="860" y="470" width="40" height="20" as="geometry" />
        </mxCell>
        <mxCell id="JW5BQh1NypTSuLVF8O1o-28" value="нет" style="text;html=1;strokeColor=none;fillColor=none;align=center;verticalAlign=middle;whiteSpace=wrap;rounded=0;" vertex="1" parent="1">
          <mxGeometry x="1010" y="430" width="40" height="20" as="geometry" />
        </mxCell>
        <mxCell id="JW5BQh1NypTSuLVF8O1o-29" value="" style="ellipse;html=1;shape=endState;fillColor=#000000;strokeColor=#ff0000;" vertex="1" parent="1">
          <mxGeometry x="80" y="720" width="30" height="30" as="geometry" />
        </mxCell>
        <mxCell id="JW5BQh1NypTSuLVF8O1o-31" value="нет" style="text;html=1;strokeColor=none;fillColor=none;align=center;verticalAlign=middle;whiteSpace=wrap;rounded=0;" vertex="1" parent="1">
          <mxGeometry x="520" y="440" width="40" height="20" as="geometry" />
        </mxCell>
        <mxCell id="JW5BQh1NypTSuLVF8O1o-9" value="Зайти в помещение" style="rounded=1;whiteSpace=wrap;html=1;" vertex="1" parent="1">
          <mxGeometry x="170" y="345" width="210" height="60" as="geometry" />
        </mxCell>
        <mxCell id="JW5BQh1NypTSuLVF8O1o-32" value="" style="edgeStyle=orthogonalEdgeStyle;html=1;verticalAlign=bottom;endArrow=none;endSize=8;strokeColor=#ff0000;" edge="1" parent="1" source="JW5BQh1NypTSuLVF8O1o-1" target="JW5BQh1NypTSuLVF8O1o-9">
          <mxGeometry relative="1" as="geometry">
            <mxPoint x="450" y="375" as="targetPoint" />
            <mxPoint x="110" y="375" as="sourcePoint" />
          </mxGeometry>
        </mxCell>
        <mxCell id="JW5BQh1NypTSuLVF8O1o-33" value="Начало" style="text;html=1;strokeColor=none;fillColor=none;align=center;verticalAlign=middle;whiteSpace=wrap;rounded=0;" vertex="1" parent="1">
          <mxGeometry x="70" y="325" width="40" height="20" as="geometry" />
        </mxCell>
        <mxCell id="JW5BQh1NypTSuLVF8O1o-34" value="Конец" style="text;html=1;strokeColor=none;fillColor=none;align=center;verticalAlign=middle;whiteSpace=wrap;rounded=0;" vertex="1" parent="1">
          <mxGeometry x="20" y="750" width="40" height="20" as="geometry" />
        </mxCell>
        <mxCell id="JW5BQh1NypTSuLVF8O1o-41" style="edgeStyle=orthogonalEdgeStyle;rounded=0;orthogonalLoop=1;jettySize=auto;html=1;" edge="1" parent="1" source="JW5BQh1NypTSuLVF8O1o-38">
          <mxGeometry relative="1" as="geometry">
            <mxPoint x="980" y="675" as="targetPoint" />
          </mxGeometry>
        </mxCell>
        <mxCell id="JW5BQh1NypTSuLVF8O1o-38" value="Кондиционер вкл?" style="rhombus;whiteSpace=wrap;html=1;" vertex="1" parent="1">
          <mxGeometry x="1097" y="610" width="136" height="130" as="geometry" />
        </mxCell>
        <mxCell id="JW5BQh1NypTSuLVF8O1o-39" value="" style="edgeStyle=orthogonalEdgeStyle;html=1;verticalAlign=bottom;endArrow=none;endSize=8;strokeColor=#ff0000;startArrow=none;" edge="1" parent="1" source="JW5BQh1NypTSuLVF8O1o-23" target="JW5BQh1NypTSuLVF8O1o-38">
          <mxGeometry relative="1" as="geometry">
            <mxPoint x="1160" y="1013" as="targetPoint" />
            <mxPoint x="1165" y="550" as="sourcePoint" />
            <Array as="points" />
          </mxGeometry>
        </mxCell>
        <mxCell id="JW5BQh1NypTSuLVF8O1o-40" value="да" style="text;html=1;strokeColor=none;fillColor=none;align=center;verticalAlign=middle;whiteSpace=wrap;rounded=0;" vertex="1" parent="1">
          <mxGeometry x="1180" y="760" width="40" height="20" as="geometry" />
        </mxCell>
        <mxCell id="JW5BQh1NypTSuLVF8O1o-42" value="нет" style="text;html=1;strokeColor=none;fillColor=none;align=center;verticalAlign=middle;whiteSpace=wrap;rounded=0;" vertex="1" parent="1">
          <mxGeometry x="1030" y="650" width="40" height="20" as="geometry" />
        </mxCell>
        <mxCell id="JW5BQh1NypTSuLVF8O1o-45" style="edgeStyle=orthogonalEdgeStyle;rounded=0;orthogonalLoop=1;jettySize=auto;html=1;entryX=1;entryY=0.5;entryDx=0;entryDy=0;" edge="1" parent="1" source="JW5BQh1NypTSuLVF8O1o-43" target="JW5BQh1NypTSuLVF8O1o-44">
          <mxGeometry relative="1" as="geometry" />
        </mxCell>
        <mxCell id="JW5BQh1NypTSuLVF8O1o-43" value="Проверить наличие света в дома" style="rounded=1;whiteSpace=wrap;html=1;" vertex="1" parent="1">
          <mxGeometry x="770" y="645" width="210" height="60" as="geometry" />
        </mxCell>
        <mxCell id="JW5BQh1NypTSuLVF8O1o-46" style="edgeStyle=orthogonalEdgeStyle;rounded=0;orthogonalLoop=1;jettySize=auto;html=1;" edge="1" parent="1" source="JW5BQh1NypTSuLVF8O1o-44">
          <mxGeometry relative="1" as="geometry">
            <mxPoint x="622" y="810" as="targetPoint" />
          </mxGeometry>
        </mxCell>
        <mxCell id="JW5BQh1NypTSuLVF8O1o-47" style="edgeStyle=orthogonalEdgeStyle;rounded=0;orthogonalLoop=1;jettySize=auto;html=1;" edge="1" parent="1" source="JW5BQh1NypTSuLVF8O1o-44">
          <mxGeometry relative="1" as="geometry">
            <mxPoint x="490" y="675" as="targetPoint" />
          </mxGeometry>
        </mxCell>
        <mxCell id="JW5BQh1NypTSuLVF8O1o-44" value="Есть свет?" style="rhombus;whiteSpace=wrap;html=1;" vertex="1" parent="1">
          <mxGeometry x="554" y="610" width="136" height="130" as="geometry" />
        </mxCell>
        <mxCell id="JW5BQh1NypTSuLVF8O1o-48" value="да" style="text;html=1;strokeColor=none;fillColor=none;align=center;verticalAlign=middle;whiteSpace=wrap;rounded=0;" vertex="1" parent="1">
          <mxGeometry x="620" y="750" width="40" height="20" as="geometry" />
        </mxCell>
        <mxCell id="JW5BQh1NypTSuLVF8O1o-49" value="нет" style="text;html=1;strokeColor=none;fillColor=none;align=center;verticalAlign=middle;whiteSpace=wrap;rounded=0;" vertex="1" parent="1">
          <mxGeometry x="510" y="640" width="40" height="20" as="geometry" />
        </mxCell>
        <mxCell id="JW5BQh1NypTSuLVF8O1o-53" style="edgeStyle=orthogonalEdgeStyle;rounded=0;orthogonalLoop=1;jettySize=auto;html=1;" edge="1" parent="1" source="JW5BQh1NypTSuLVF8O1o-50">
          <mxGeometry relative="1" as="geometry">
            <mxPoint x="625" y="900" as="targetPoint" />
          </mxGeometry>
        </mxCell>
        <mxCell id="JW5BQh1NypTSuLVF8O1o-50" value="Вызвать мастера, для устранения неполадок" style="rounded=1;whiteSpace=wrap;html=1;" vertex="1" parent="1">
          <mxGeometry x="520" y="810" width="210" height="60" as="geometry" />
        </mxCell>
        <mxCell id="JW5BQh1NypTSuLVF8O1o-52" style="edgeStyle=orthogonalEdgeStyle;rounded=0;orthogonalLoop=1;jettySize=auto;html=1;entryX=0;entryY=0.5;entryDx=0;entryDy=0;" edge="1" parent="1" source="JW5BQh1NypTSuLVF8O1o-51" target="JW5BQh1NypTSuLVF8O1o-23">
          <mxGeometry relative="1" as="geometry">
            <Array as="points">
              <mxPoint x="385" y="520" />
            </Array>
          </mxGeometry>
        </mxCell>
        <mxCell id="JW5BQh1NypTSuLVF8O1o-51" value="Ждать, когда дадут свет" style="rounded=1;whiteSpace=wrap;html=1;" vertex="1" parent="1">
          <mxGeometry x="280" y="645" width="210" height="60" as="geometry" />
        </mxCell>
        <mxCell id="JW5BQh1NypTSuLVF8O1o-55" style="edgeStyle=orthogonalEdgeStyle;rounded=0;orthogonalLoop=1;jettySize=auto;html=1;entryX=0;entryY=0.25;entryDx=0;entryDy=0;" edge="1" parent="1" source="JW5BQh1NypTSuLVF8O1o-54" target="JW5BQh1NypTSuLVF8O1o-23">
          <mxGeometry relative="1" as="geometry">
            <Array as="points">
              <mxPoint x="250" y="930" />
              <mxPoint x="250" y="505" />
            </Array>
          </mxGeometry>
        </mxCell>
        <mxCell id="JW5BQh1NypTSuLVF8O1o-54" value="Ждать, когда отремонтируют" style="rounded=1;whiteSpace=wrap;html=1;" vertex="1" parent="1">
          <mxGeometry x="520" y="900" width="210" height="60" as="geometry" />
        </mxCell>
        <mxCell id="JW5BQh1NypTSuLVF8O1o-57" value="" style="edgeStyle=orthogonalEdgeStyle;html=1;verticalAlign=bottom;endArrow=none;endSize=8;strokeColor=#ff0000;startArrow=none;" edge="1" parent="1" source="JW5BQh1NypTSuLVF8O1o-38">
          <mxGeometry relative="1" as="geometry">
            <mxPoint x="1165" y="840" as="targetPoint" />
            <mxPoint x="1165" y="740" as="sourcePoint" />
            <Array as="points" />
          </mxGeometry>
        </mxCell>
        <mxCell id="JW5BQh1NypTSuLVF8O1o-58" value="Выставить нужную температуру используя пульт" style="rounded=1;whiteSpace=wrap;html=1;" vertex="1" parent="1">
          <mxGeometry x="1060" y="840" width="210" height="60" as="geometry" />
        </mxCell>
        <mxCell id="JW5BQh1NypTSuLVF8O1o-63" value="Ждём когда, температура в помещении будет удовлетворена запросу" style="rounded=1;whiteSpace=wrap;html=1;" vertex="1" parent="1">
          <mxGeometry x="500" y="1300" width="210" height="60" as="geometry" />
        </mxCell>
        <mxCell id="JW5BQh1NypTSuLVF8O1o-64" value="" style="edgeStyle=orthogonalEdgeStyle;html=1;verticalAlign=bottom;endArrow=none;endSize=8;strokeColor=#ff0000;startArrow=none;" edge="1" parent="1" source="JW5BQh1NypTSuLVF8O1o-73" target="JW5BQh1NypTSuLVF8O1o-63">
          <mxGeometry relative="1" as="geometry">
            <mxPoint x="410" y="1140" as="targetPoint" />
            <mxPoint x="1165" y="900" as="sourcePoint" />
            <Array as="points" />
          </mxGeometry>
        </mxCell>
        <mxCell id="JW5BQh1NypTSuLVF8O1o-62" value="Запускается внешний кондиционер" style="rounded=1;whiteSpace=wrap;html=1;" vertex="1" parent="1">
          <mxGeometry x="840" y="1109" width="210" height="60" as="geometry" />
        </mxCell>
        <mxCell id="JW5BQh1NypTSuLVF8O1o-65" value="" style="edgeStyle=orthogonalEdgeStyle;html=1;verticalAlign=bottom;endArrow=none;endSize=8;strokeColor=#ff0000;startArrow=none;" edge="1" parent="1" source="JW5BQh1NypTSuLVF8O1o-60" target="JW5BQh1NypTSuLVF8O1o-62">
          <mxGeometry relative="1" as="geometry">
            <mxPoint x="730" y="1140" as="targetPoint" />
            <mxPoint x="1165" y="900" as="sourcePoint" />
            <Array as="points">
              <mxPoint x="1165" y="1140" />
            </Array>
          </mxGeometry>
        </mxCell>
        <mxCell id="JW5BQh1NypTSuLVF8O1o-60" value="&lt;span&gt;Датчик определяет температуру помещения и выставляет заданную температуру пользователем в кондиционере&lt;/span&gt;" style="rounded=1;whiteSpace=wrap;html=1;" vertex="1" parent="1">
          <mxGeometry x="1060" y="940" width="210" height="60" as="geometry" />
        </mxCell>
        <mxCell id="JW5BQh1NypTSuLVF8O1o-66" value="" style="edgeStyle=orthogonalEdgeStyle;html=1;verticalAlign=bottom;endArrow=none;endSize=8;strokeColor=#ff0000;startArrow=none;" edge="1" parent="1" target="JW5BQh1NypTSuLVF8O1o-60">
          <mxGeometry relative="1" as="geometry">
            <mxPoint x="1050" y="1140" as="targetPoint" />
            <mxPoint x="1165" y="900" as="sourcePoint" />
            <Array as="points" />
          </mxGeometry>
        </mxCell>
        <mxCell id="JW5BQh1NypTSuLVF8O1o-67" value="Выкл. Кондиционер используя пульт" style="rounded=1;whiteSpace=wrap;html=1;" vertex="1" parent="1">
          <mxGeometry x="-15" y="1100" width="210" height="60" as="geometry" />
        </mxCell>
        <mxCell id="JW5BQh1NypTSuLVF8O1o-68" value="" style="edgeStyle=orthogonalEdgeStyle;html=1;verticalAlign=bottom;endArrow=none;endSize=8;strokeColor=#ff0000;startArrow=none;entryX=1;entryY=0.5;entryDx=0;entryDy=0;" edge="1" parent="1" source="JW5BQh1NypTSuLVF8O1o-63" target="JW5BQh1NypTSuLVF8O1o-79">
          <mxGeometry relative="1" as="geometry">
            <mxPoint x="130" y="1120" as="targetPoint" />
            <mxPoint x="520" y="1130" as="sourcePoint" />
            <Array as="points" />
          </mxGeometry>
        </mxCell>
        <mxCell id="JW5BQh1NypTSuLVF8O1o-71" style="edgeStyle=orthogonalEdgeStyle;rounded=0;orthogonalLoop=1;jettySize=auto;html=1;entryX=1;entryY=0.5;entryDx=0;entryDy=0;" edge="1" parent="1" source="JW5BQh1NypTSuLVF8O1o-69" target="JW5BQh1NypTSuLVF8O1o-50">
          <mxGeometry relative="1" as="geometry" />
        </mxCell>
        <mxCell id="JW5BQh1NypTSuLVF8O1o-69" value="Датчик определил?" style="rhombus;whiteSpace=wrap;html=1;" vertex="1" parent="1">
          <mxGeometry x="1097" y="1010" width="136" height="130" as="geometry" />
        </mxCell>
        <mxCell id="JW5BQh1NypTSuLVF8O1o-70" value="да" style="text;html=1;strokeColor=none;fillColor=none;align=center;verticalAlign=middle;whiteSpace=wrap;rounded=0;" vertex="1" parent="1">
          <mxGeometry x="1080" y="1120" width="40" height="20" as="geometry" />
        </mxCell>
        <mxCell id="JW5BQh1NypTSuLVF8O1o-72" value="нет" style="text;html=1;strokeColor=none;fillColor=none;align=center;verticalAlign=middle;whiteSpace=wrap;rounded=0;" vertex="1" parent="1">
          <mxGeometry x="1010" y="1050" width="40" height="20" as="geometry" />
        </mxCell>
        <mxCell id="JW5BQh1NypTSuLVF8O1o-75" style="edgeStyle=orthogonalEdgeStyle;rounded=0;orthogonalLoop=1;jettySize=auto;html=1;" edge="1" parent="1" source="JW5BQh1NypTSuLVF8O1o-73">
          <mxGeometry relative="1" as="geometry">
            <mxPoint x="730" y="850" as="targetPoint" />
            <Array as="points">
              <mxPoint x="830" y="1080" />
              <mxPoint x="830" y="850" />
            </Array>
          </mxGeometry>
        </mxCell>
        <mxCell id="JW5BQh1NypTSuLVF8O1o-73" value="Запустился?" style="rhombus;whiteSpace=wrap;html=1;" vertex="1" parent="1">
          <mxGeometry x="610" y="1074" width="136" height="130" as="geometry" />
        </mxCell>
        <mxCell id="JW5BQh1NypTSuLVF8O1o-74" value="" style="edgeStyle=orthogonalEdgeStyle;html=1;verticalAlign=bottom;endArrow=none;endSize=8;strokeColor=#ff0000;startArrow=none;" edge="1" parent="1" source="JW5BQh1NypTSuLVF8O1o-62" target="JW5BQh1NypTSuLVF8O1o-73">
          <mxGeometry relative="1" as="geometry">
            <mxPoint x="490" y="1130" as="targetPoint" />
            <mxPoint x="840" y="1139" as="sourcePoint" />
            <Array as="points" />
          </mxGeometry>
        </mxCell>
        <mxCell id="JW5BQh1NypTSuLVF8O1o-76" value="нет" style="text;html=1;strokeColor=none;fillColor=none;align=center;verticalAlign=middle;whiteSpace=wrap;rounded=0;" vertex="1" parent="1">
          <mxGeometry x="690" y="1054" width="40" height="20" as="geometry" />
        </mxCell>
        <mxCell id="JW5BQh1NypTSuLVF8O1o-77" value="да" style="text;html=1;strokeColor=none;fillColor=none;align=center;verticalAlign=middle;whiteSpace=wrap;rounded=0;" vertex="1" parent="1">
          <mxGeometry x="640" y="1204" width="40" height="20" as="geometry" />
        </mxCell>
        <mxCell id="JW5BQh1NypTSuLVF8O1o-82" style="edgeStyle=orthogonalEdgeStyle;rounded=0;orthogonalLoop=1;jettySize=auto;html=1;entryX=0;entryY=0.5;entryDx=0;entryDy=0;" edge="1" parent="1" source="JW5BQh1NypTSuLVF8O1o-79" target="JW5BQh1NypTSuLVF8O1o-84">
          <mxGeometry relative="1" as="geometry">
            <mxPoint x="250" y="1410" as="targetPoint" />
            <Array as="points" />
          </mxGeometry>
        </mxCell>
        <mxCell id="JW5BQh1NypTSuLVF8O1o-79" value="Температура изменилась?" style="rhombus;whiteSpace=wrap;html=1;" vertex="1" parent="1">
          <mxGeometry x="187" y="1265" width="136" height="130" as="geometry" />
        </mxCell>
        <mxCell id="JW5BQh1NypTSuLVF8O1o-80" value="" style="edgeStyle=orthogonalEdgeStyle;html=1;verticalAlign=bottom;endArrow=none;endSize=8;strokeColor=#ff0000;startArrow=none;entryX=0;entryY=0.5;entryDx=0;entryDy=0;exitX=1;exitY=0.5;exitDx=0;exitDy=0;" edge="1" parent="1" source="JW5BQh1NypTSuLVF8O1o-67" target="JW5BQh1NypTSuLVF8O1o-79">
          <mxGeometry relative="1" as="geometry">
            <mxPoint x="326" y="1265" as="targetPoint" />
            <mxPoint x="395" y="1170" as="sourcePoint" />
            <Array as="points">
              <mxPoint x="195" y="1200" />
              <mxPoint x="180" y="1200" />
            </Array>
          </mxGeometry>
        </mxCell>
        <mxCell id="JW5BQh1NypTSuLVF8O1o-81" value="да" style="text;html=1;strokeColor=none;fillColor=none;align=center;verticalAlign=middle;whiteSpace=wrap;rounded=0;" vertex="1" parent="1">
          <mxGeometry x="140" y="1184" width="40" height="20" as="geometry" />
        </mxCell>
        <mxCell id="JW5BQh1NypTSuLVF8O1o-83" value="нет" style="text;html=1;strokeColor=none;fillColor=none;align=center;verticalAlign=middle;whiteSpace=wrap;rounded=0;" vertex="1" parent="1">
          <mxGeometry x="210" y="1244" width="40" height="20" as="geometry" />
        </mxCell>
        <mxCell id="JW5BQh1NypTSuLVF8O1o-87" style="edgeStyle=orthogonalEdgeStyle;rounded=0;orthogonalLoop=1;jettySize=auto;html=1;entryX=0.5;entryY=1;entryDx=0;entryDy=0;" edge="1" parent="1" source="JW5BQh1NypTSuLVF8O1o-84" target="JW5BQh1NypTSuLVF8O1o-85">
          <mxGeometry relative="1" as="geometry" />
        </mxCell>
        <mxCell id="JW5BQh1NypTSuLVF8O1o-84" value="Проверить закрытое ли помещение" style="rounded=1;whiteSpace=wrap;html=1;" vertex="1" parent="1">
          <mxGeometry x="300" y="1184" width="210" height="60" as="geometry" />
        </mxCell>
        <mxCell id="JW5BQh1NypTSuLVF8O1o-88" style="edgeStyle=orthogonalEdgeStyle;rounded=0;orthogonalLoop=1;jettySize=auto;html=1;entryX=1;entryY=0.75;entryDx=0;entryDy=0;" edge="1" parent="1" source="JW5BQh1NypTSuLVF8O1o-85" target="JW5BQh1NypTSuLVF8O1o-50">
          <mxGeometry relative="1" as="geometry">
            <Array as="points">
              <mxPoint x="405" y="1020" />
              <mxPoint x="750" y="1020" />
              <mxPoint x="750" y="855" />
            </Array>
          </mxGeometry>
        </mxCell>
        <mxCell id="JW5BQh1NypTSuLVF8O1o-90" style="edgeStyle=orthogonalEdgeStyle;rounded=0;orthogonalLoop=1;jettySize=auto;html=1;entryX=0;entryY=0.5;entryDx=0;entryDy=0;" edge="1" parent="1" source="JW5BQh1NypTSuLVF8O1o-85" target="JW5BQh1NypTSuLVF8O1o-92">
          <mxGeometry relative="1" as="geometry">
            <mxPoint x="460" y="1095" as="targetPoint" />
            <Array as="points">
              <mxPoint x="420" y="1085" />
              <mxPoint x="420" y="1095" />
            </Array>
          </mxGeometry>
        </mxCell>
        <mxCell id="JW5BQh1NypTSuLVF8O1o-85" value="Помещение закрыто?" style="rhombus;whiteSpace=wrap;html=1;" vertex="1" parent="1">
          <mxGeometry x="270" y="1020" width="136" height="130" as="geometry" />
        </mxCell>
        <mxCell id="JW5BQh1NypTSuLVF8O1o-89" value="да" style="text;html=1;strokeColor=none;fillColor=none;align=center;verticalAlign=middle;whiteSpace=wrap;rounded=0;" vertex="1" parent="1">
          <mxGeometry x="340" y="1000" width="40" height="20" as="geometry" />
        </mxCell>
        <mxCell id="JW5BQh1NypTSuLVF8O1o-91" value="нет" style="text;html=1;strokeColor=none;fillColor=none;align=center;verticalAlign=middle;whiteSpace=wrap;rounded=0;" vertex="1" parent="1">
          <mxGeometry x="394" y="1054" width="40" height="20" as="geometry" />
        </mxCell>
        <mxCell id="JW5BQh1NypTSuLVF8O1o-95" style="edgeStyle=orthogonalEdgeStyle;rounded=0;orthogonalLoop=1;jettySize=auto;html=1;entryX=0.338;entryY=-0.05;entryDx=0;entryDy=0;entryPerimeter=0;" edge="1" parent="1" source="JW5BQh1NypTSuLVF8O1o-92" target="JW5BQh1NypTSuLVF8O1o-63">
          <mxGeometry relative="1" as="geometry">
            <Array as="points">
              <mxPoint x="571" y="1095" />
            </Array>
          </mxGeometry>
        </mxCell>
        <mxCell id="JW5BQh1NypTSuLVF8O1o-92" value="Закрыть помещение" style="rounded=1;whiteSpace=wrap;html=1;" vertex="1" parent="1">
          <mxGeometry x="434" y="1060" width="105" height="70" as="geometry" />
        </mxCell>
        <mxCell id="JW5BQh1NypTSuLVF8O1o-96" value="C_TemperatureSensor" style="swimlane;fontStyle=1;align=center;verticalAlign=top;childLayout=stackLayout;horizontal=1;startSize=26;horizontalStack=0;resizeParent=1;resizeParentMax=0;resizeLast=0;collapsible=1;marginBottom=0;" vertex="1" parent="1">
          <mxGeometry x="427" y="1639" width="400" height="112" as="geometry" />
        </mxCell>
        <mxCell id="JW5BQh1NypTSuLVF8O1o-97" value="- tamperature: vector&lt;C_Room&gt;" style="text;strokeColor=#d6b656;fillColor=#fff2cc;align=left;verticalAlign=top;spacingLeft=4;spacingRight=4;overflow=hidden;rotatable=0;points=[[0,0.5],[1,0.5]];portConstraint=eastwest;" vertex="1" parent="JW5BQh1NypTSuLVF8O1o-96">
          <mxGeometry y="26" width="400" height="26" as="geometry" />
        </mxCell>
        <mxCell id="JW5BQh1NypTSuLVF8O1o-98" value="" style="line;strokeWidth=1;fillColor=none;align=left;verticalAlign=middle;spacingTop=-1;spacingLeft=3;spacingRight=3;rotatable=0;labelPosition=right;points=[];portConstraint=eastwest;" vertex="1" parent="JW5BQh1NypTSuLVF8O1o-96">
          <mxGeometry y="52" width="400" height="8" as="geometry" />
        </mxCell>
        <mxCell id="JW5BQh1NypTSuLVF8O1o-99" value="+ C_TemperatureSensor(vector&lt;C_Room&gt;):" style="text;strokeColor=#d79b00;fillColor=#ffe6cc;align=left;verticalAlign=top;spacingLeft=4;spacingRight=4;overflow=hidden;rotatable=0;points=[[0,0.5],[1,0.5]];portConstraint=eastwest;" vertex="1" parent="JW5BQh1NypTSuLVF8O1o-96">
          <mxGeometry y="60" width="400" height="26" as="geometry" />
        </mxCell>
        <mxCell id="JW5BQh1NypTSuLVF8O1o-100" value="+ ShowInfo(): void" style="text;strokeColor=#6c8ebf;fillColor=#dae8fc;align=left;verticalAlign=top;spacingLeft=4;spacingRight=4;overflow=hidden;rotatable=0;points=[[0,0.5],[1,0.5]];portConstraint=eastwest;" vertex="1" parent="JW5BQh1NypTSuLVF8O1o-96">
          <mxGeometry y="86" width="400" height="26" as="geometry" />
        </mxCell>
        <mxCell id="JW5BQh1NypTSuLVF8O1o-101" value="C_ExternalAirConditioner" style="swimlane;fontStyle=1;align=center;verticalAlign=top;childLayout=stackLayout;horizontal=1;startSize=26;horizontalStack=0;resizeParent=1;resizeParentMax=0;resizeLast=0;collapsible=1;marginBottom=0;" vertex="1" parent="1">
          <mxGeometry x="-280" y="1840" width="340" height="86" as="geometry" />
        </mxCell>
        <mxCell id="JW5BQh1NypTSuLVF8O1o-105" value="" style="line;strokeWidth=1;fillColor=none;align=left;verticalAlign=middle;spacingTop=-1;spacingLeft=3;spacingRight=3;rotatable=0;labelPosition=right;points=[];portConstraint=eastwest;" vertex="1" parent="JW5BQh1NypTSuLVF8O1o-101">
          <mxGeometry y="26" width="340" height="8" as="geometry" />
        </mxCell>
        <mxCell id="JW5BQh1NypTSuLVF8O1o-106" value="+ C_ExternalAirConditioner():" style="text;strokeColor=#d79b00;fillColor=#ffe6cc;align=left;verticalAlign=top;spacingLeft=4;spacingRight=4;overflow=hidden;rotatable=0;points=[[0,0.5],[1,0.5]];portConstraint=eastwest;" vertex="1" parent="JW5BQh1NypTSuLVF8O1o-101">
          <mxGeometry y="34" width="340" height="26" as="geometry" />
        </mxCell>
        <mxCell id="JW5BQh1NypTSuLVF8O1o-146" value="+ PowerOnOrOff(string): void" style="text;strokeColor=#6c8ebf;fillColor=#dae8fc;align=left;verticalAlign=top;spacingLeft=4;spacingRight=4;overflow=hidden;rotatable=0;points=[[0,0.5],[1,0.5]];portConstraint=eastwest;" vertex="1" parent="JW5BQh1NypTSuLVF8O1o-101">
          <mxGeometry y="60" width="340" height="26" as="geometry" />
        </mxCell>
        <mxCell id="JW5BQh1NypTSuLVF8O1o-110" value="C_Room" style="swimlane;fontStyle=1;align=center;verticalAlign=top;childLayout=stackLayout;horizontal=1;startSize=26;horizontalStack=0;resizeParent=1;resizeParentMax=0;resizeLast=0;collapsible=1;marginBottom=0;" vertex="1" parent="1">
          <mxGeometry x="1045" y="1600" width="240" height="138" as="geometry" />
        </mxCell>
        <mxCell id="JW5BQh1NypTSuLVF8O1o-111" value="- tamperature: float" style="text;strokeColor=#d6b656;fillColor=#fff2cc;align=left;verticalAlign=top;spacingLeft=4;spacingRight=4;overflow=hidden;rotatable=0;points=[[0,0.5],[1,0.5]];portConstraint=eastwest;" vertex="1" parent="JW5BQh1NypTSuLVF8O1o-110">
          <mxGeometry y="26" width="240" height="26" as="geometry" />
        </mxCell>
        <mxCell id="JW5BQh1NypTSuLVF8O1o-112" value="" style="line;strokeWidth=1;fillColor=none;align=left;verticalAlign=middle;spacingTop=-1;spacingLeft=3;spacingRight=3;rotatable=0;labelPosition=right;points=[];portConstraint=eastwest;" vertex="1" parent="JW5BQh1NypTSuLVF8O1o-110">
          <mxGeometry y="52" width="240" height="8" as="geometry" />
        </mxCell>
        <mxCell id="JW5BQh1NypTSuLVF8O1o-113" value="+ C_Room():" style="text;strokeColor=#d79b00;fillColor=#ffe6cc;align=left;verticalAlign=top;spacingLeft=4;spacingRight=4;overflow=hidden;rotatable=0;points=[[0,0.5],[1,0.5]];portConstraint=eastwest;" vertex="1" parent="JW5BQh1NypTSuLVF8O1o-110">
          <mxGeometry y="60" width="240" height="26" as="geometry" />
        </mxCell>
        <mxCell id="JW5BQh1NypTSuLVF8O1o-114" value="+ C_Room(float):" style="text;strokeColor=#d79b00;fillColor=#ffe6cc;align=left;verticalAlign=top;spacingLeft=4;spacingRight=4;overflow=hidden;rotatable=0;points=[[0,0.5],[1,0.5]];portConstraint=eastwest;" vertex="1" parent="JW5BQh1NypTSuLVF8O1o-110">
          <mxGeometry y="86" width="240" height="26" as="geometry" />
        </mxCell>
        <mxCell id="JW5BQh1NypTSuLVF8O1o-115" value="+ getTamperatureRoom(): float" style="text;strokeColor=#b85450;fillColor=#f8cecc;align=left;verticalAlign=top;spacingLeft=4;spacingRight=4;overflow=hidden;rotatable=0;points=[[0,0.5],[1,0.5]];portConstraint=eastwest;" vertex="1" parent="JW5BQh1NypTSuLVF8O1o-110">
          <mxGeometry y="112" width="240" height="26" as="geometry" />
        </mxCell>
        <mxCell id="JW5BQh1NypTSuLVF8O1o-116" value="" style="endArrow=diamondThin;endFill=0;endSize=24;html=1;exitX=0.475;exitY=0;exitDx=0;exitDy=0;exitPerimeter=0;entryX=0.859;entryY=-0.009;entryDx=0;entryDy=0;entryPerimeter=0;" edge="1" parent="1" source="JW5BQh1NypTSuLVF8O1o-96" target="JW5BQh1NypTSuLVF8O1o-119">
          <mxGeometry width="160" relative="1" as="geometry">
            <mxPoint x="630" y="1713" as="sourcePoint" />
            <mxPoint x="540" y="1592" as="targetPoint" />
            <Array as="points">
              <mxPoint x="617" y="1500" />
              <mxPoint x="232" y="1500" />
            </Array>
          </mxGeometry>
        </mxCell>
        <mxCell id="JW5BQh1NypTSuLVF8O1o-117" value="" style="endArrow=diamondThin;endFill=0;endSize=24;html=1;entryX=0.5;entryY=0;entryDx=0;entryDy=0;exitX=0.433;exitY=0.017;exitDx=0;exitDy=0;exitPerimeter=0;" edge="1" parent="1" source="JW5BQh1NypTSuLVF8O1o-110" target="JW5BQh1NypTSuLVF8O1o-119">
          <mxGeometry width="160" relative="1" as="geometry">
            <mxPoint x="940" y="1463" as="sourcePoint" />
            <mxPoint x="1100" y="1463" as="targetPoint" />
            <Array as="points">
              <mxPoint x="1149" y="1463" />
              <mxPoint x="950" y="1463" />
              <mxPoint x="396" y="1463" />
              <mxPoint x="110" y="1463" />
            </Array>
          </mxGeometry>
        </mxCell>
        <mxCell id="JW5BQh1NypTSuLVF8O1o-118" value="" style="endArrow=diamondThin;endFill=0;endSize=24;html=1;exitX=-0.005;exitY=0.108;exitDx=0;exitDy=0;entryX=1.008;entryY=0.098;entryDx=0;entryDy=0;exitPerimeter=0;entryPerimeter=0;" edge="1" parent="1" source="JW5BQh1NypTSuLVF8O1o-110" target="JW5BQh1NypTSuLVF8O1o-96">
          <mxGeometry width="160" relative="1" as="geometry">
            <mxPoint x="1090" y="2262" as="sourcePoint" />
            <mxPoint x="920" y="1973" as="targetPoint" />
            <Array as="points">
              <mxPoint x="1000" y="1615" />
              <mxPoint x="1000" y="1650" />
              <mxPoint x="960" y="1650" />
              <mxPoint x="930" y="1650" />
            </Array>
          </mxGeometry>
        </mxCell>
        <mxCell id="JW5BQh1NypTSuLVF8O1o-119" value="C_AirConditioningAbstract" style="swimlane;fontStyle=1;align=center;verticalAlign=top;childLayout=stackLayout;horizontal=1;startSize=26;horizontalStack=0;resizeParent=1;resizeParentMax=0;resizeLast=0;collapsible=1;marginBottom=0;" vertex="1" parent="1">
          <mxGeometry x="-60" y="1550" width="340" height="216" as="geometry" />
        </mxCell>
        <mxCell id="JW5BQh1NypTSuLVF8O1o-120" value="# power: string" style="text;strokeColor=#d6b656;fillColor=#fff2cc;align=left;verticalAlign=top;spacingLeft=4;spacingRight=4;overflow=hidden;rotatable=0;points=[[0,0.5],[1,0.5]];portConstraint=eastwest;" vertex="1" parent="JW5BQh1NypTSuLVF8O1o-119">
          <mxGeometry y="26" width="340" height="26" as="geometry" />
        </mxCell>
        <mxCell id="JW5BQh1NypTSuLVF8O1o-121" value="# future tamperature: float" style="text;strokeColor=#d6b656;fillColor=#fff2cc;align=left;verticalAlign=top;spacingLeft=4;spacingRight=4;overflow=hidden;rotatable=0;points=[[0,0.5],[1,0.5]];portConstraint=eastwest;" vertex="1" parent="JW5BQh1NypTSuLVF8O1o-119">
          <mxGeometry y="52" width="340" height="26" as="geometry" />
        </mxCell>
        <mxCell id="JW5BQh1NypTSuLVF8O1o-122" value="# temperature control: vector&lt;C_Temperature_Sensor&gt;" style="text;strokeColor=#d6b656;fillColor=#fff2cc;align=left;verticalAlign=top;spacingLeft=4;spacingRight=4;overflow=hidden;rotatable=0;points=[[0,0.5],[1,0.5]];portConstraint=eastwest;" vertex="1" parent="JW5BQh1NypTSuLVF8O1o-119">
          <mxGeometry y="78" width="340" height="26" as="geometry" />
        </mxCell>
        <mxCell id="JW5BQh1NypTSuLVF8O1o-123" value="" style="line;strokeWidth=1;fillColor=none;align=left;verticalAlign=middle;spacingTop=-1;spacingLeft=3;spacingRight=3;rotatable=0;labelPosition=right;points=[];portConstraint=eastwest;" vertex="1" parent="JW5BQh1NypTSuLVF8O1o-119">
          <mxGeometry y="104" width="340" height="8" as="geometry" />
        </mxCell>
        <mxCell id="JW5BQh1NypTSuLVF8O1o-124" value="+ C_Air_Conditioning():" style="text;strokeColor=#d79b00;fillColor=#ffe6cc;align=left;verticalAlign=top;spacingLeft=4;spacingRight=4;overflow=hidden;rotatable=0;points=[[0,0.5],[1,0.5]];portConstraint=eastwest;" vertex="1" parent="JW5BQh1NypTSuLVF8O1o-119">
          <mxGeometry y="112" width="340" height="26" as="geometry" />
        </mxCell>
        <mxCell id="JW5BQh1NypTSuLVF8O1o-125" value="+ GetTheTemperature(float): void" style="text;strokeColor=#6c8ebf;fillColor=#dae8fc;align=left;verticalAlign=top;spacingLeft=4;spacingRight=4;overflow=hidden;rotatable=0;points=[[0,0.5],[1,0.5]];portConstraint=eastwest;" vertex="1" parent="JW5BQh1NypTSuLVF8O1o-119">
          <mxGeometry y="138" width="340" height="26" as="geometry" />
        </mxCell>
        <mxCell id="JW5BQh1NypTSuLVF8O1o-126" value="+ PowerOnOrOff(string): void" style="text;strokeColor=#6c8ebf;fillColor=#dae8fc;align=left;verticalAlign=top;spacingLeft=4;spacingRight=4;overflow=hidden;rotatable=0;points=[[0,0.5],[1,0.5]];portConstraint=eastwest;" vertex="1" parent="JW5BQh1NypTSuLVF8O1o-119">
          <mxGeometry y="164" width="340" height="26" as="geometry" />
        </mxCell>
        <mxCell id="JW5BQh1NypTSuLVF8O1o-127" value="+ ShowInfo(): void" style="text;strokeColor=#6c8ebf;fillColor=#dae8fc;align=left;verticalAlign=top;spacingLeft=4;spacingRight=4;overflow=hidden;rotatable=0;points=[[0,0.5],[1,0.5]];portConstraint=eastwest;" vertex="1" parent="JW5BQh1NypTSuLVF8O1o-119">
          <mxGeometry y="190" width="340" height="26" as="geometry" />
        </mxCell>
        <mxCell id="JW5BQh1NypTSuLVF8O1o-128" value="C_InternalAirConditioner" style="swimlane;fontStyle=1;align=center;verticalAlign=top;childLayout=stackLayout;horizontal=1;startSize=26;horizontalStack=0;resizeParent=1;resizeParentMax=0;resizeLast=0;collapsible=1;marginBottom=0;" vertex="1" parent="1">
          <mxGeometry x="140" y="1840" width="340" height="138" as="geometry" />
        </mxCell>
        <mxCell id="JW5BQh1NypTSuLVF8O1o-132" value="" style="line;strokeWidth=1;fillColor=none;align=left;verticalAlign=middle;spacingTop=-1;spacingLeft=3;spacingRight=3;rotatable=0;labelPosition=right;points=[];portConstraint=eastwest;" vertex="1" parent="JW5BQh1NypTSuLVF8O1o-128">
          <mxGeometry y="26" width="340" height="8" as="geometry" />
        </mxCell>
        <mxCell id="JW5BQh1NypTSuLVF8O1o-133" value="+ C_InternalAirConditioner" style="text;strokeColor=#d79b00;fillColor=#ffe6cc;align=left;verticalAlign=top;spacingLeft=4;spacingRight=4;overflow=hidden;rotatable=0;points=[[0,0.5],[1,0.5]];portConstraint=eastwest;" vertex="1" parent="JW5BQh1NypTSuLVF8O1o-128">
          <mxGeometry y="34" width="340" height="26" as="geometry" />
        </mxCell>
        <mxCell id="JW5BQh1NypTSuLVF8O1o-134" value="+ GetTheTemperature(float): void" style="text;strokeColor=#6c8ebf;fillColor=#dae8fc;align=left;verticalAlign=top;spacingLeft=4;spacingRight=4;overflow=hidden;rotatable=0;points=[[0,0.5],[1,0.5]];portConstraint=eastwest;" vertex="1" parent="JW5BQh1NypTSuLVF8O1o-128">
          <mxGeometry y="60" width="340" height="26" as="geometry" />
        </mxCell>
        <mxCell id="JW5BQh1NypTSuLVF8O1o-135" value="+ PowerOnOrOff(string): void" style="text;strokeColor=#6c8ebf;fillColor=#dae8fc;align=left;verticalAlign=top;spacingLeft=4;spacingRight=4;overflow=hidden;rotatable=0;points=[[0,0.5],[1,0.5]];portConstraint=eastwest;" vertex="1" parent="JW5BQh1NypTSuLVF8O1o-128">
          <mxGeometry y="86" width="340" height="26" as="geometry" />
        </mxCell>
        <mxCell id="JW5BQh1NypTSuLVF8O1o-136" value="+ ShowInfo(): void" style="text;strokeColor=#6c8ebf;fillColor=#dae8fc;align=left;verticalAlign=top;spacingLeft=4;spacingRight=4;overflow=hidden;rotatable=0;points=[[0,0.5],[1,0.5]];portConstraint=eastwest;" vertex="1" parent="JW5BQh1NypTSuLVF8O1o-128">
          <mxGeometry y="112" width="340" height="26" as="geometry" />
        </mxCell>
        <mxCell id="JW5BQh1NypTSuLVF8O1o-137" value="Extends" style="endArrow=block;endSize=16;endFill=0;html=1;exitX=0.391;exitY=0.014;exitDx=0;exitDy=0;exitPerimeter=0;entryX=-0.012;entryY=0.056;entryDx=0;entryDy=0;entryPerimeter=0;" edge="1" parent="1" source="JW5BQh1NypTSuLVF8O1o-101" target="JW5BQh1NypTSuLVF8O1o-119">
          <mxGeometry width="160" relative="1" as="geometry">
            <mxPoint x="230" y="1780" as="sourcePoint" />
            <mxPoint x="390" y="1780" as="targetPoint" />
            <Array as="points">
              <mxPoint x="-147" y="1562" />
            </Array>
          </mxGeometry>
        </mxCell>
        <mxCell id="JW5BQh1NypTSuLVF8O1o-138" value="Extends" style="endArrow=block;endSize=16;endFill=0;html=1;exitX=0.644;exitY=0.007;exitDx=0;exitDy=0;exitPerimeter=0;entryX=1.009;entryY=0.069;entryDx=0;entryDy=0;entryPerimeter=0;" edge="1" parent="1" source="JW5BQh1NypTSuLVF8O1o-128" target="JW5BQh1NypTSuLVF8O1o-119">
          <mxGeometry width="160" relative="1" as="geometry">
            <mxPoint x="-137.05999999999995" y="1851.9319999999998" as="sourcePoint" />
            <mxPoint x="-54.07999999999993" y="1572.096" as="targetPoint" />
            <Array as="points">
              <mxPoint x="359" y="1565" />
            </Array>
          </mxGeometry>
        </mxCell>
        <mxCell id="JW5BQh1NypTSuLVF8O1o-139" value="C_User" style="swimlane;fontStyle=1;align=center;verticalAlign=top;childLayout=stackLayout;horizontal=1;startSize=26;horizontalStack=0;resizeParent=1;resizeParentMax=0;resizeLast=0;collapsible=1;marginBottom=0;" vertex="1" parent="1">
          <mxGeometry x="-500" y="1330" width="240" height="112" as="geometry" />
        </mxCell>
        <mxCell id="JW5BQh1NypTSuLVF8O1o-163" value="- remote control: vector&lt;C_RemoteControl&gt;" style="text;strokeColor=#d6b656;fillColor=#fff2cc;align=left;verticalAlign=top;spacingLeft=4;spacingRight=4;overflow=hidden;rotatable=0;points=[[0,0.5],[1,0.5]];portConstraint=eastwest;" vertex="1" parent="JW5BQh1NypTSuLVF8O1o-139">
          <mxGeometry y="26" width="240" height="26" as="geometry" />
        </mxCell>
        <mxCell id="JW5BQh1NypTSuLVF8O1o-141" value="" style="line;strokeWidth=1;fillColor=none;align=left;verticalAlign=middle;spacingTop=-1;spacingLeft=3;spacingRight=3;rotatable=0;labelPosition=right;points=[];portConstraint=eastwest;" vertex="1" parent="JW5BQh1NypTSuLVF8O1o-139">
          <mxGeometry y="52" width="240" height="8" as="geometry" />
        </mxCell>
        <mxCell id="JW5BQh1NypTSuLVF8O1o-149" value="+ C_User():" style="text;strokeColor=#d79b00;fillColor=#ffe6cc;align=left;verticalAlign=top;spacingLeft=4;spacingRight=4;overflow=hidden;rotatable=0;points=[[0,0.5],[1,0.5]];portConstraint=eastwest;" vertex="1" parent="JW5BQh1NypTSuLVF8O1o-139">
          <mxGeometry y="60" width="240" height="26" as="geometry" />
        </mxCell>
        <mxCell id="JW5BQh1NypTSuLVF8O1o-148" value="+ RemoteControlOperation(vector&lt;C_RemoteControl&gt;): void" style="text;strokeColor=#6c8ebf;fillColor=#dae8fc;align=left;verticalAlign=top;spacingLeft=4;spacingRight=4;overflow=hidden;rotatable=0;points=[[0,0.5],[1,0.5]];portConstraint=eastwest;" vertex="1" parent="JW5BQh1NypTSuLVF8O1o-139">
          <mxGeometry y="86" width="240" height="26" as="geometry" />
        </mxCell>
        <mxCell id="JW5BQh1NypTSuLVF8O1o-162" value="" style="edgeStyle=orthogonalEdgeStyle;rounded=0;orthogonalLoop=1;jettySize=auto;html=1;exitX=1.017;exitY=0.101;exitDx=0;exitDy=0;exitPerimeter=0;entryX=0;entryY=0.5;entryDx=0;entryDy=0;" edge="1" parent="1" source="JW5BQh1NypTSuLVF8O1o-150" target="JW5BQh1NypTSuLVF8O1o-163">
          <mxGeometry relative="1" as="geometry">
            <mxPoint x="-510" y="1369" as="targetPoint" />
            <Array as="points">
              <mxPoint x="-356" y="1480" />
              <mxPoint x="-680" y="1480" />
              <mxPoint x="-680" y="1369" />
            </Array>
          </mxGeometry>
        </mxCell>
        <mxCell id="JW5BQh1NypTSuLVF8O1o-150" value="C_RemoteControl" style="swimlane;fontStyle=1;align=center;verticalAlign=top;childLayout=stackLayout;horizontal=1;startSize=26;horizontalStack=0;resizeParent=1;resizeParentMax=0;resizeLast=0;collapsible=1;marginBottom=0;" vertex="1" parent="1">
          <mxGeometry x="-600" y="1580" width="240" height="138" as="geometry" />
        </mxCell>
        <mxCell id="JW5BQh1NypTSuLVF8O1o-154" value="- power: string" style="text;strokeColor=#d6b656;fillColor=#fff2cc;align=left;verticalAlign=top;spacingLeft=4;spacingRight=4;overflow=hidden;rotatable=0;points=[[0,0.5],[1,0.5]];portConstraint=eastwest;" vertex="1" parent="JW5BQh1NypTSuLVF8O1o-150">
          <mxGeometry y="26" width="240" height="26" as="geometry" />
        </mxCell>
        <mxCell id="JW5BQh1NypTSuLVF8O1o-151" value="" style="line;strokeWidth=1;fillColor=none;align=left;verticalAlign=middle;spacingTop=-1;spacingLeft=3;spacingRight=3;rotatable=0;labelPosition=right;points=[];portConstraint=eastwest;" vertex="1" parent="JW5BQh1NypTSuLVF8O1o-150">
          <mxGeometry y="52" width="240" height="8" as="geometry" />
        </mxCell>
        <mxCell id="JW5BQh1NypTSuLVF8O1o-152" value="+ C_RemoteControl():" style="text;strokeColor=#d79b00;fillColor=#ffe6cc;align=left;verticalAlign=top;spacingLeft=4;spacingRight=4;overflow=hidden;rotatable=0;points=[[0,0.5],[1,0.5]];portConstraint=eastwest;" vertex="1" parent="JW5BQh1NypTSuLVF8O1o-150">
          <mxGeometry y="60" width="240" height="26" as="geometry" />
        </mxCell>
        <mxCell id="JW5BQh1NypTSuLVF8O1o-161" value="+ SetTheDesiredTemperature(float): void" style="text;strokeColor=#6c8ebf;fillColor=#dae8fc;align=left;verticalAlign=top;spacingLeft=4;spacingRight=4;overflow=hidden;rotatable=0;points=[[0,0.5],[1,0.5]];portConstraint=eastwest;" vertex="1" parent="JW5BQh1NypTSuLVF8O1o-150">
          <mxGeometry y="86" width="240" height="26" as="geometry" />
        </mxCell>
        <mxCell id="JW5BQh1NypTSuLVF8O1o-153" value="+ PowerOnOrOff(string): void" style="text;strokeColor=#6c8ebf;fillColor=#dae8fc;align=left;verticalAlign=top;spacingLeft=4;spacingRight=4;overflow=hidden;rotatable=0;points=[[0,0.5],[1,0.5]];portConstraint=eastwest;" vertex="1" parent="JW5BQh1NypTSuLVF8O1o-150">
          <mxGeometry y="112" width="240" height="26" as="geometry" />
        </mxCell>
        <mxCell id="JW5BQh1NypTSuLVF8O1o-165" value="" style="endArrow=diamondThin;endFill=0;endSize=24;html=1;entryX=1.021;entryY=0.107;entryDx=0;entryDy=0;entryPerimeter=0;exitX=0.226;exitY=0.005;exitDx=0;exitDy=0;exitPerimeter=0;" edge="1" parent="1" source="JW5BQh1NypTSuLVF8O1o-119" target="JW5BQh1NypTSuLVF8O1o-139">
          <mxGeometry width="160" relative="1" as="geometry">
            <mxPoint x="-200" y="1395" as="sourcePoint" />
            <mxPoint x="-40" y="1395" as="targetPoint" />
          </mxGeometry>
        </mxCell>
      </root>
    </mxGraphModel>
  </diagram>
</mxfile>
